HIERARCHY
ROOT Hips
{
	OFFSET 0.000000 0.000000 0.000000 
	CHANNELS 6 Xposition Yposition Zposition Yrotation Zrotation Xrotation 
	JOINT Lumbar
	{
		OFFSET 0.000000 0.000000 0.000000 
		CHANNELS 3 Zrotation Xrotation Yrotation
		JOINT Neck
		{
			OFFSET 0.000000 0.445665 0.000000 
			CHANNELS 3 Zrotation Xrotation Yrotation
			End Site
			{
				OFFSET 0.000000 0.227535 0.000000 
			}
		}
		JOINT RightShoulder
		{
			OFFSET 0.019635 0.377685 0.194865 
			CHANNELS 3 Zrotation Xrotation Yrotation
			JOINT RightElbow
			{
				OFFSET 0.000000 -0.243375 0.000000 
				CHANNELS 2 Zrotation Yrotation
				JOINT RightWrist
				{
					OFFSET 0.000000 -0.264825 0.000000 
					CHANNELS 2 Zrotation Xrotation
					End Site
					{
						OFFSET 0.006600 -0.176220 0.000990 
					}
				}
			}
		}
		JOINT LeftShoulder
		{
			OFFSET 0.019635 0.377685 -0.194865 
			CHANNELS 3 Zrotation Xrotation Yrotation
			JOINT LeftElbow
			{
				OFFSET 0.000000 -0.243375 0.000000 
				CHANNELS 2 Zrotation Yrotation
				JOINT LeftWrist
				{
					OFFSET 0.000000 -0.264825 0.000000 
					CHANNELS 2 Zrotation Xrotation
					End Site
					{
						OFFSET 0.006600 -0.176220 -0.000990 
					}
				}
			}
		}
	}
	JOINT RightHip
	{
		OFFSET 0.052140 -0.069960 0.075570 
		CHANNELS 3 Zrotation Xrotation Yrotation
		JOINT RightKnee
		{
			OFFSET 0.000000 -0.402270 0.000000 
			CHANNELS 1 Zrotation
			JOINT RightAnkle
			{
				OFFSET 0.000000 -0.404085 0.000000 
				CHANNELS 3 Zrotation Xrotation Yrotation
				End Site
				{
					OFFSET 0.204105 -0.089430 0.008415 
				}
			}
		}
	}
	JOINT LeftHip
	{
		OFFSET 0.052140 -0.069960 -0.075570 
		CHANNELS 3 Zrotation Xrotation Yrotation
		JOINT LeftKnee
		{
			OFFSET 0.000000 -0.402270 0.000000 
			CHANNELS 1 Zrotation
			JOINT LeftAnkle
			{
				OFFSET 0.000000 -0.404085 0.000000 
				CHANNELS 3 Zrotation Xrotation Yrotation
				End Site
				{
					OFFSET 0.204105 -0.089430 -0.008415 
				}
			}
		}
	}
}
MOTION
Frames: 25
Frame Time: 0.02
0.0002 -2e-05 0.00021 23.05877 -24.22749 -7.07655 42.19364 2.48132 -5.2402 -12.78315 -1.75809 -0.40567 69.20773 -102.6927 64.16763 5.33176 102.01498 12.96241 0.75071 51.14682 103.25857 -64.17114 7.96746 -90.45556 9.64799 1.65038 38.10052 -1.09159 -3.07213 -21.74808 -7.22623 -4.38986 -2.92581 43.50562 8.75561 1.47382 -27.57078 -6.75546 3.1292 2.25764
0.0006 4e-05 -0 23.03697 -24.21508 -7.07335 42.21383 2.47447 -5.22313 -12.79642 -1.75981 -0.40608 69.20564 -102.70586 64.16795 5.33149 102.03755 12.96935 0.74139 51.27849 103.27435 -64.17114 7.96003 -90.42184 9.65865 1.61602 38.05572 -1.11582 -3.19216 -21.74829 -7.20968 -4.36402 -2.91416 43.45041 8.73946 1.41329 -27.56564 -6.75321 3.13381 2.26174
0.001 0.00011 -0.00021 23.01521 -24.20271 -7.07017 42.23397 2.46762 -5.2061 -12.80964 -1.76152 -0.40649 69.20372 -102.71897 64.16826 5.33121 102.06007 12.97624 0.73214 51.4098 103.29012 -64.17114 7.95262 -90.3882 9.66926 1.58176 38.01102 -1.14001 -3.31203 -21.7485 -7.19315 -4.33823 -2.90253 43.39533 8.72331 1.35268 -27.56052 -6.75098 3.13844 2.26586
0.0014 0.00017 -0.00043 22.99347 -24.19033 -7.06698 42.25409 2.46078 -5.18907 -12.82288 -1.76323 -0.4069 69.20165 -102.73209 64.16857 5.33093 102.08257 12.98316 0.72286 51.54108 103.30586 -64.17114 7.94521 -90.35458 9.67988 1.54751 37.96635 -1.16418 -3.43173 -21.74871 -7.17664 -4.31246 -2.89091 43.34028 8.70721 1.29228 -27.5554 -6.74874 3.14304 2.26995
0.0018 0.00023 -0.00064 22.97168 -24.17793 -7.06377 42.27425 2.45394 -5.172 -12.83617 -1.76495 -0.40731 69.19935 -102.74527 64.16888 5.33066 102.10512 12.99014 0.71349 51.67268 103.32159 -64.17114 7.93779 -90.32087 9.69058 1.51317 37.9216 -1.18836 -3.55148 -21.74892 -7.16011 -4.28666 -2.87928 43.28512 8.69114 1.23209 -27.55026 -6.74649 3.1476 2.27403
0.00219 0.00029 -0.00086 22.95 -24.16561 -7.06066 42.29435 2.44709 -5.15507 -12.84925 -1.76664 -0.40772 69.19822 -102.75823 64.16919 5.33038 102.12756 12.99685 0.70448 51.80336 103.33742 -64.17115 7.9304 -90.2874 9.701 1.47906 37.87701 -1.21257 -3.6716 -21.74911 -7.1436 -4.26087 -2.86765 43.23023 8.67481 1.17062 -27.54518 -6.74428 3.1524 2.27822
0.00259 0.00036 -0.00107 22.92813 -24.15313 -7.05736 42.31454 2.44026 -5.13787 -12.86274 -1.7684 -0.40814 69.19473 -102.77161 64.16951 5.3301 102.15021 13.00408 0.69475 51.93577 103.35305 -64.17115 7.92294 -90.25349 9.71195 1.44454 37.83214 -1.23671 -3.79088 -21.74935 -7.12706 -4.23509 -2.85602 43.17484 8.65901 1.11171 -27.53998 -6.742 3.15672 2.28217
0.00299 0.00042 -0.00128 22.90644 -24.1408 -7.05423 42.33465 2.43341 -5.12091 -12.87585 -1.77009 -0.40855 69.19344 -102.78461 64.16982 5.32983 102.17264 13.01083 0.6857 52.06657 103.36884 -64.17115 7.91556 -90.21998 9.72242 1.4104 37.78753 -1.2609 -3.91086 -21.74954 -7.11056 -4.20931 -2.8444 43.11992 8.64275 1.05058 -27.53489 -6.73978 3.16146 2.28634
0.00338 0.00048 -0.0015 22.88494 -24.12866 -7.05132 42.35468 2.42654 -5.10427 -12.88853 -1.77171 -0.40895 69.19477 -102.79715 64.17011 5.32956 102.1949 13.017 0.67745 52.19552 103.38494 -64.17115 7.90825 -90.18697 9.73231 1.37671 37.74321 -1.28521 -4.0321 -21.74967 -7.09406 -4.18347 -2.83275 43.06552 8.62579 0.98613 -27.52994 -6.73764 3.16679 2.29082
0.00379 0.00055 -0.00171 22.86224 -24.11542 -7.04715 42.37524 2.4198 -5.0859 -12.90377 -1.77374 -0.40938 69.18083 -102.81232 64.17048 5.32924 102.21846 13.02656 0.66451 52.33549 103.3996 -64.17115 7.90046 -90.1511 9.74553 1.34035 37.69712 -1.30902 -4.14732 -21.75014 -7.0774 -4.15778 -2.82116 43.00796 8.61245 0.93896 -27.52419 -6.73504 3.16897 2.29365
0.00417 0.00061 -0.00192 22.84215 -24.10453 -7.04564 42.39463 2.41279 -5.07111 -12.91355 -1.77491 -0.40976 69.19921 -102.82195 64.1707 5.32904 102.23905 13.02893 0.66149 52.45193 103.41709 -64.17115 7.89371 -90.12127 9.75171 1.30967 37.65486 -1.33376 -4.27441 -21.74991 -7.06116 -4.1319 -2.80951 42.95718 8.59175 0.85653 -27.52014 -6.73341 3.17764 2.29986
0.00446 0.00064 -0.00213 22.82872 -24.09981 -7.05154 42.41105 2.40512 -5.06674 -12.90873 -1.77386 -0.41003 69.30631 -102.81602 64.17048 5.32922 102.25347 13.01142 0.68569 52.50568 103.44396 -64.17115 7.8896 -90.10796 9.73852 1.29443 37.62245 -1.36211 -4.44128 -21.74767 -7.04555 -4.10459 -2.79728 42.92432 8.54845 0.6661 -27.52069 -6.73469 3.20559 2.31628
0.00473 0.00066 -0.00232 22.81803 -24.0975 -7.06009 42.42622 2.39718 -5.06588 -12.89838 -1.77193 -0.41026 69.44584 -102.80458 64.17011 5.32953 102.26455 12.98669 0.71982 52.53562 103.47334 -64.17115 7.88658 -90.10072 9.71827 1.28491 37.59402 -1.39121 -4.6188 -21.74474 -7.03044 -4.07726 -2.78508 42.89843 8.4982 0.44221 -27.52294 -6.73692 3.2398 2.33594
0.005 0.00069 -0.00252 22.80642 -24.09425 -7.06737 42.4418 2.38935 -5.06302 -12.89032 -1.77031 -0.4105 69.5705 -102.79589 64.16983 5.32976 102.27588 12.96537 0.74945 52.57501 103.50051 -64.17114 7.8832 -90.09073 9.70128 1.27289 37.56417 -1.41924 -4.78663 -21.74222 -7.01543 -4.05055 -2.77316 42.86977 8.45276 0.2411 -27.52446 -6.73859 3.27018 2.35352
0.00529 0.00071 -0.00273 22.79336 -24.09032 -7.07494 42.45813 2.38159 -5.06184 -12.88318 -1.76904 -0.41074 69.6958 -102.78618 64.16947 5.33007 102.29259 12.94356 0.77916 52.61945 103.53228 -64.17115 7.87925 -90.08071 9.68405 1.26054 37.53265 -1.45027 -4.97467 -21.73932 -6.99907 -4.02125 -2.75999 42.83937 8.40046 0.00845 -27.52582 -6.74081 3.30472 2.37365
0.00554 0.00074 -0.00292 22.78408 -24.08839 -7.08253 42.47249 2.37362 -5.05804 -12.87284 -1.76687 -0.41098 69.82745 -102.77727 64.16925 5.33025 102.29727 12.92095 0.81091 52.6486 103.55499 -64.17114 7.87676 -90.0722 9.66566 1.25016 37.50559 -1.47533 -5.12348 -21.73702 -6.98563 -3.99736 -2.74944 42.81434 8.36064 -0.16705 -27.52791 -6.7421 3.33208 2.38925
0.0057 0.00075 -0.00312 22.78356 -24.09131 -7.08934 42.48265 2.36508 -5.04546 -12.8547 -1.7623 -0.41124 69.96865 -102.77204 64.16947 5.33005 102.2697 12.89907 0.84693 52.634 103.55244 -64.17105 7.87795 -90.06639 9.64571 1.24447 37.48957 -1.48295 -5.15828 -21.7366 -6.98007 -3.98833 -2.74614 42.80179 8.35841 -0.17145 -27.53164 -6.74062 3.33801 2.39154
0.00581 0.00075 -0.00332 22.7869 -24.0962 -7.0961 42.4907 2.35636 -5.0302 -12.8336 -1.75689 -0.4115 70.11512 -102.76777 64.16983 5.32974 102.23013 12.87644 0.88442 52.60633 103.5406 -64.17094 7.88065 -90.06193 9.62485 1.24046 37.47799 -1.48469 -5.15381 -21.73679 -6.97745 -3.98476 -2.74546 42.79456 8.36868 -0.11822 -27.53603 -6.73818 3.33654 2.38918
0.00595 0.00076 -0.00351 22.78914 -24.1002 -7.103 42.49905 2.34776 -5.01665 -12.81403 -1.75197 -0.41175 70.25921 -102.76305 64.17012 5.32947 102.19589 12.85341 0.92055 52.58934 103.5328 -64.17084 7.88268 -90.0568 9.60451 1.23523 37.46451 -1.48961 -5.16931 -21.73664 -6.97353 -3.97876 -2.74356 42.7853 8.37233 -0.09458 -27.54009 -6.73616 3.33849 2.38895
0.00609 0.00077 -0.00371 22.78882 -24.10413 -7.10952 42.51006 2.33896 -5.00131 -12.79343 -1.74654 -0.41201 70.4044 -102.75832 64.17045 5.32919 102.16195 12.83324 0.96006 52.55104 103.52591 -64.17072 7.88446 -90.05194 9.58359 1.23208 37.45053 -1.4924 -5.17617 -21.73668 -6.96947 -3.97259 -2.74179 42.77454 8.37983 -0.05736 -27.54433 -6.73421 3.34035 2.38871
0.0062 0.00077 -0.00391 22.79461 -24.10878 -7.11677 42.51515 2.33059 -4.98882 -12.77444 -1.742 -0.41226 70.5481 -102.75377 64.17074 5.32897 102.12473 12.80705 0.99262 52.5549 103.51483 -64.17065 7.88739 -90.04697 9.56362 1.22498 37.4388 -1.49825 -5.19163 -21.73652 -6.96639 -3.96804 -2.74037 42.76823 8.38223 -0.03482 -27.54835 -6.7319 3.34065 2.38742
0.0062 0.00076 -0.0041 22.81698 -24.11396 -7.12623 42.50366 2.32305 -4.98643 -12.75986 -1.74011 -0.41247 70.68651 -102.75081 64.17085 5.32878 102.07986 12.76411 1.00663 52.6736 103.49497 -64.17072 7.89087 -90.03959 9.54743 1.20611 37.43048 -1.5136 -5.23994 -21.73528 -6.96533 -3.96681 -2.73935 42.77151 8.3689 -0.06201 -27.55154 -6.72854 3.33756 2.38368
0.00615 0.00074 -0.00429 22.84518 -24.11998 -7.13637 42.48645 2.31606 -4.98666 -12.74719 -1.73912 -0.41267 70.82302 -102.74778 64.17091 5.32891 102.0323 12.71519 1.01326 52.83618 103.47121 -64.17084 7.89606 -90.03233 9.53198 1.18328 37.42462 -1.5323 -5.29852 -21.7339 -6.96512 -3.96694 -2.73855 42.77931 8.34987 -0.10644 -27.55451 -6.72488 3.33326 2.37913
0.00612 0.00073 -0.00449 22.87038 -24.12623 -7.14607 42.47238 2.30907 -4.9847 -12.73419 -1.73772 -0.41288 70.96026 -102.74396 64.171 5.3287 101.98714 12.6693 1.02271 52.98194 103.44876 -64.17093 7.90166 -90.02619 9.51576 1.1625 37.41872 -1.54969 -5.3524 -21.73283 -6.96451 -3.96636 -2.73762 42.78589 8.33241 -0.14641 -27.55762 -6.72153 3.33011 2.37543
0.0061 0.00071 -0.00468 22.89746 -24.12993 -7.15636 42.45594 2.30092 -4.987 -12.71882 -1.73635 -0.41308 71.09847 -102.74368 64.17109 5.32834 101.937 12.62225 1.03493 53.11408 103.42751 -64.17108 7.90145 -90.01525 9.50181 1.14062 37.40831 -1.56591 -5.40416 -21.73071 -6.96413 -3.96652 -2.73702 42.78913 8.3193 -0.17133 -27.56058 -6.7174 3.32427 2.36963
